<svg xmlns="http://www.w3.org/2000/svg" width="82" height="100" fill="none" viewBox="0 0 82 100">
  <path fill="#44C697" d="M75.685 33.76H6.315a1.172 1.172 0 01-1.172-1.172V8.248c0-.648.525-1.173 1.172-1.173h69.37c.647 0 1.172.525 1.172 1.172v24.341c0 .647-.525 1.172-1.172 1.172zM7.487 31.416h67.026V9.42H7.487v21.997z"/>
  <path fill="#44C697" d="M70.307 33.76H11.693a1.172 1.172 0 01-1.172-1.172V13.625c0-.647.525-1.171 1.172-1.171h58.614c.647 0 1.172.524 1.172 1.171v18.963c0 .647-.525 1.172-1.172 1.172zm-57.442-2.344h56.27V14.797h-56.27v16.62z"/>
  <path fill="#44C697" d="M37.466 33.76H15.227a4.712 4.712 0 01-4.706-4.706V17.16a4.712 4.712 0 014.706-4.707h22.239a4.711 4.711 0 014.706 4.707v11.894a4.711 4.711 0 01-4.706 4.706zM15.227 14.797a2.365 2.365 0 00-2.362 2.363v11.894a2.365 2.365 0 002.362 2.362h22.239a2.365 2.365 0 002.362-2.362V17.16a2.365 2.365 0 00-2.362-2.363H15.227z"/>
  <path fill="#44C697" d="M66.772 33.76H44.534a4.712 4.712 0 01-4.706-4.706V17.16a4.712 4.712 0 014.706-4.707h22.238a4.711 4.711 0 014.706 4.707v11.894a4.711 4.711 0 01-4.706 4.706zM44.534 14.797a2.365 2.365 0 00-2.362 2.363v11.894a2.365 2.365 0 002.362 2.362h22.238a2.365 2.365 0 002.363-2.362V17.16a2.365 2.365 0 00-2.363-2.363H44.534z"/>
  <path fill="#44C697" d="M76.533 92.925H5.467A4.712 4.712 0 01.76 88.219V36.122a4.712 4.712 0 014.706-4.706h71.066a4.711 4.711 0 014.706 4.706V88.22a4.712 4.712 0 01-4.706 4.706zM5.467 33.76a2.365 2.365 0 00-2.363 2.362V88.22a2.365 2.365 0 002.363 2.362h71.066a2.365 2.365 0 002.362-2.362V36.122a2.365 2.365 0 00-2.362-2.362H5.467zM76.984 9.419H5.016A4.26 4.26 0 01.76 5.164v-.909A4.26 4.26 0 015.016 0h71.968a4.26 4.26 0 014.255 4.255v.909a4.26 4.26 0 01-4.255 4.255zM5.016 2.344a1.914 1.914 0 00-1.912 1.911v.909a1.914 1.914 0 001.912 1.911h71.968a1.914 1.914 0 001.912-1.911v-.909a1.914 1.914 0 00-1.912-1.911H5.016z"/>
  <path fill="#44C697" d="M76.984 100H5.016A4.26 4.26 0 01.76 95.745v-.909a4.26 4.26 0 014.255-4.255h71.968a4.26 4.26 0 014.255 4.255v.909A4.26 4.26 0 0176.984 100zM5.016 92.925a1.914 1.914 0 00-1.912 1.911v.909a1.913 1.913 0 001.912 1.911h71.968a1.914 1.914 0 001.912-1.911v-.909a1.914 1.914 0 00-1.912-1.911H5.016z"/>
</svg>
