<svg xmlns="http://www.w3.org/2000/svg" width="24" height="24" fill="none" viewBox="0 0 24 24">
  <path fill="#fff" fill-rule="evenodd" d="M5 4.75c-.69 0-1.25.56-1.25 1.25v14c0 .69.56 1.25 1.25 1.25h14c.69 0 1.25-.56 1.25-1.25V6c0-.69-.56-1.25-1.25-1.25H5zM2.25 6A2.75 2.75 0 015 3.25h14A2.75 2.75 0 0121.75 6v14A2.75 2.75 0 0119 22.75H5A2.75 2.75 0 012.25 20V6z" clip-rule="evenodd"/>
  <path fill="#fff" fill-rule="evenodd" d="M16 1.25a.75.75 0 01.75.75v4a.75.75 0 01-1.5 0V2a.75.75 0 01.75-.75zM8 1.25a.75.75 0 01.75.75v4a.75.75 0 01-1.5 0V2A.75.75 0 018 1.25zM2.25 10A.75.75 0 013 9.25h18a.75.75 0 010 1.5H3a.75.75 0 01-.75-.75z" clip-rule="evenodd"/>
</svg>
