<svg xmlns="http://www.w3.org/2000/svg" width="22" height="22" fill="none" viewBox="0 0 22 22">
  <path fill="#1E2E36" fill-rule="evenodd" d="M6.603.398C7.74.346 8.104.333 11 .333h-.003c2.898 0 3.26.013 4.398.065 1.135.052 1.91.232 2.59.495a5.212 5.212 0 011.89 1.23 5.235 5.235 0 011.23 1.89c.263.678.443 1.453.496 2.589.051 1.138.065 1.501.065 4.398s-.014 3.26-.065 4.398c-.053 1.135-.233 1.91-.495 2.588a5.237 5.237 0 01-1.232 1.89 5.219 5.219 0 01-1.888 1.23c-.678.265-1.454.444-2.59.496-1.138.052-1.5.065-4.397.065-2.897 0-3.26-.013-4.398-.065-1.135-.052-1.91-.231-2.59-.495a5.223 5.223 0 01-1.888-1.231 5.227 5.227 0 01-1.23-1.89C.63 17.308.45 16.533.397 15.397.346 14.26.333 13.897.333 11c0-2.897.014-3.26.065-4.398.05-1.136.23-1.91.495-2.59a5.236 5.236 0 011.231-1.889 5.223 5.223 0 011.89-1.23C4.692.63 5.467.45 6.603.398zm4.043 1.857h-.602v-.002c-1.988.002-2.37.015-3.353.06-1.04.048-1.605.221-1.98.368a3.31 3.31 0 00-1.228.798 3.305 3.305 0 00-.798 1.227c-.146.376-.32.94-.367 1.98-.051 1.125-.061 1.46-.061 4.309s.01 3.186.06 4.31c.048 1.04.222 1.605.368 1.98.194.499.425.853.798 1.227.374.373.73.604 1.227.797.376.146.94.32 1.98.368 1.125.051 1.463.063 4.311.063s3.186-.012 4.31-.063c1.04-.047 1.605-.22 1.98-.367a3.3 3.3 0 001.227-.798c.373-.373.604-.728.798-1.225.146-.376.32-.94.367-1.98.051-1.125.062-1.463.062-4.31 0-2.846-.01-3.184-.062-4.308-.047-1.04-.221-1.605-.367-1.98a3.311 3.311 0 00-.798-1.227 3.299 3.299 0 00-1.226-.798c-.376-.146-.94-.32-1.98-.367-1.125-.051-1.463-.061-4.31-.061h-.357zM5.522 11a5.478 5.478 0 1110.956 0 5.478 5.478 0 01-10.956 0zm9.034 0a3.556 3.556 0 10-7.112 0 3.556 3.556 0 007.112 0zm.858-5.694a1.28 1.28 0 112.56 0 1.28 1.28 0 01-2.56 0z" clip-rule="evenodd"/>
</svg>
