<svg xmlns="http://www.w3.org/2000/svg" width="100" height="94" fill="none" viewBox="0 0 100 94">
  <path fill="#1E2E36" d="M67.788 88.13H32.212a1.172 1.172 0 01-1.172-1.171V59.713c0-.647.525-1.172 1.172-1.172h35.576c.647 0 1.172.524 1.172 1.172v27.245c0 .647-.525 1.171-1.172 1.171zm-34.404-2.343h33.232V60.886H33.384v24.9z"/>
  <path fill="#1E2E36" d="M67.788 93.145H32.212a1.172 1.172 0 01-1.172-1.172v-5.015c0-.647.525-1.172 1.172-1.172h35.576c.647 0 1.172.525 1.172 1.172v5.015c0 .647-.525 1.172-1.172 1.172zM33.384 90.8h33.232v-2.67H33.384v2.67zM67.788 60.886H32.212a1.172 1.172 0 01-1.172-1.172V48.162c0-.647.525-1.172 1.172-1.172h35.576c.647 0 1.172.525 1.172 1.172v11.552c0 .647-.525 1.172-1.172 1.172zm-34.404-2.344h33.232v-9.208H33.384v9.208z"/>
  <path fill="#1E2E36" d="M50 57.736a3.798 3.798 0 110-7.596 3.798 3.798 0 010 7.596zm0-5.252a1.454 1.454 0 100 2.908 1.454 1.454 0 000-2.908zM59.867 57.736a3.798 3.798 0 110-7.596 3.798 3.798 0 010 7.596zm0-5.252a1.454 1.454 0 100 2.908 1.454 1.454 0 000-2.908zM40.133 57.736a3.798 3.798 0 110-7.596 3.798 3.798 0 010 7.596zm0-5.252a1.454 1.454 0 100 2.908 1.454 1.454 0 000-2.908zM60.909 67.737H39.092a2.756 2.756 0 010-5.512h21.817a2.756 2.756 0 11.002 5.512h-.002zm-21.817-3.169a.412.412 0 000 .825h21.817a.412.412 0 100-.825H39.092z"/>
  <path fill="#1E2E36" d="M59.867 84.389H40.133a1.172 1.172 0 01-1.172-1.172V66.565c0-.647.525-1.172 1.172-1.172h19.734c.647 0 1.172.525 1.172 1.172v16.652c0 .647-.525 1.172-1.172 1.172zm-18.562-2.344h17.39V67.737h-17.39v14.308zM42.191 49.334a1.172 1.172 0 01-1.172-1.172v-2.908a1.172 1.172 0 012.344 0v2.908c0 .648-.524 1.172-1.172 1.172zM47.747 49.334a1.172 1.172 0 01-1.172-1.172v-1.736h-1.563a1.172 1.172 0 010-2.344h2.735c.647 0 1.172.525 1.172 1.172v2.908c0 .648-.525 1.172-1.172 1.172zM36.636 49.334a1.172 1.172 0 01-1.172-1.172v-2.908c0-.647.524-1.172 1.172-1.172h2.734a1.172 1.172 0 010 2.344h-1.563v1.736c0 .648-.524 1.172-1.171 1.172zM57.809 49.334a1.172 1.172 0 01-1.172-1.172v-2.908a1.172 1.172 0 012.344 0v2.908c0 .648-.525 1.172-1.172 1.172zM52.253 49.334a1.172 1.172 0 01-1.172-1.172v-2.908c0-.647.525-1.172 1.172-1.172h2.735a1.172 1.172 0 010 2.344h-1.563v1.736c0 .648-.524 1.172-1.172 1.172zM63.364 49.334a1.172 1.172 0 01-1.171-1.172v-1.736H60.63a1.172 1.172 0 010-2.344h2.734c.648 0 1.172.525 1.172 1.172v2.908c0 .648-.524 1.172-1.172 1.172zM73.452 53.602h-2.098a1.172 1.172 0 010-2.344h2.098a1.172 1.172 0 010 2.344z"/>
  <path fill="#1E2E36" d="M77.018 93.145h-9.23a1.172 1.172 0 01-1.172-1.172v-43.81c0-.648.525-1.172 1.172-1.172h9.23c.647 0 1.172.524 1.172 1.171v43.81c0 .648-.525 1.173-1.172 1.173zM68.96 90.8h6.886V49.334H68.96v41.467z"/>
  <path fill="#1E2E36" d="M98.828 71.24h-21.81a1.172 1.172 0 01-1.172-1.172V48.162c0-.647.525-1.172 1.172-1.172h21.81c.647 0 1.172.525 1.172 1.172v21.906c0 .647-.525 1.172-1.172 1.172zM78.19 68.896h19.466V49.334H78.19v19.562z"/>
  <path fill="#1E2E36" d="M90.734 53.602h-5.621a1.172 1.172 0 010-2.344h5.62a1.172 1.172 0 010 2.344zM19.502 53.602h-5.62a1.172 1.172 0 010-2.344h5.62a1.172 1.172 0 010 2.344zM98.828 93.145h-21.81a1.172 1.172 0 01-1.172-1.172V70.068c0-.647.525-1.172 1.172-1.172h21.81c.647 0 1.172.524 1.172 1.172v21.905c0 .647-.525 1.172-1.172 1.172zM78.19 90.8h19.466V71.24H78.19V90.8z"/>
  <path fill="#1E2E36" d="M90.734 75.507h-5.621a1.172 1.172 0 010-2.344h5.62a1.172 1.172 0 010 2.344zM16.692 93.145H1.172A1.172 1.172 0 010 91.973v-32.26c0-.646.525-1.171 1.172-1.171h15.52c.647 0 1.172.524 1.172 1.172v32.259c0 .647-.525 1.172-1.172 1.172zM2.344 90.8H15.52V60.886H2.344V90.8z"/>
  <path fill="#1E2E36" d="M32.212 93.145h-15.52a1.172 1.172 0 01-1.172-1.172v-32.26c0-.646.525-1.171 1.172-1.171h15.52c.647 0 1.172.524 1.172 1.172v32.259c0 .647-.525 1.172-1.172 1.172zM17.864 90.8H31.04V60.886H17.864V90.8z"/>
  <path fill="#1E2E36" d="M20.398 78.966a1.172 1.172 0 01-1.172-1.172v-3.901a1.172 1.172 0 012.343 0v3.901c0 .647-.524 1.172-1.171 1.172zM12.986 78.966a1.172 1.172 0 01-1.171-1.172v-3.901a1.172 1.172 0 012.343 0v3.901c0 .647-.524 1.172-1.171 1.172zM32.212 60.886H1.172A1.172 1.172 0 010 59.714V48.162c0-.647.525-1.172 1.172-1.172h31.04c.647 0 1.172.525 1.172 1.172v11.552c0 .647-.525 1.172-1.172 1.172zM2.344 58.542H31.04v-9.208H2.344v9.208zM66.467 24.777H33.533a2.496 2.496 0 01-2.493-2.493V18.92a2.495 2.495 0 012.493-2.493h32.934a2.496 2.496 0 012.493 2.493v3.365a2.496 2.496 0 01-2.493 2.493zM33.533 18.77a.15.15 0 00-.15.149v3.365a.15.15 0 00.15.15h32.934a.15.15 0 00.15-.15V18.92a.15.15 0 00-.15-.15H33.533z"/>
  <path fill="#1E2E36" d="M64.024 18.77H35.976a2.47 2.47 0 01-1.522-4.414l.9-.705A14.668 14.668 0 0041.02 2.028c0-.648.525-1.172 1.172-1.172h15.618c.647 0 1.172.524 1.172 1.172a14.667 14.667 0 005.664 11.623l.9.705a2.469 2.469 0 01-1.52 4.414zM43.324 3.2a16.984 16.984 0 01-6.525 12.297l-.9.704a.126.126 0 00.077.225h28.048a.126.126 0 00.078-.224l-.9-.705A16.984 16.984 0 0156.675 3.2H43.324zM95.2 24.777H76.552a2.937 2.937 0 010-5.874H95.2a2.937 2.937 0 110 5.874zm-18.648-3.53a.593.593 0 000 1.186H95.2a.593.593 0 000-1.186H76.552zM23.448 24.777H4.8a2.937 2.937 0 010-5.874h18.648a2.937 2.937 0 110 5.874zM4.8 21.247a.593.593 0 100 1.186h18.648a.593.593 0 100-1.186H4.8z"/>
  <path fill="#1E2E36" d="M21.577 21.247H16.81a1.172 1.172 0 01-1.171-1.172v-4.029c0-.647.524-1.171 1.171-1.171h4.767c.647 0 1.172.524 1.172 1.171v4.03c0 .646-.524 1.171-1.172 1.171zm-3.595-2.344h2.424v-1.685h-2.424v1.685z"/>
  <path fill="#1E2E36" d="M22.7 17.218h-7.013a1.172 1.172 0 010-2.344h7.014a1.172 1.172 0 010 2.344zM11.438 21.247H6.67A1.172 1.172 0 015.5 20.075v-4.029c0-.647.524-1.171 1.171-1.171h4.768c.647 0 1.171.524 1.171 1.171v4.03c0 .646-.524 1.171-1.171 1.171zm-3.596-2.344h2.424v-1.685H7.842v1.685z"/>
  <path fill="#1E2E36" d="M12.56 17.218H5.548a1.172 1.172 0 010-2.344h7.013a1.172 1.172 0 110 2.344zM21.577 17.218H16.81a1.172 1.172 0 01-1.171-1.172v-4.028c0-.648.524-1.172 1.171-1.172h4.767c.647 0 1.172.524 1.172 1.171v4.03c0 .646-.524 1.171-1.172 1.171zm-3.595-2.344h2.424V13.19h-2.424v1.685z"/>
  <path fill="#1E2E36" d="M22.7 13.19h-7.013a1.172 1.172 0 010-2.344h7.014a1.172 1.172 0 010 2.343zM11.438 17.218H6.67A1.172 1.172 0 015.5 16.046v-4.028c0-.648.524-1.172 1.171-1.172h4.768c.647 0 1.171.524 1.171 1.171v4.03c0 .646-.524 1.171-1.171 1.171zm-3.596-2.344h2.424V13.19H7.842v1.685z"/>
  <path fill="#1E2E36" d="M12.56 13.19H5.548a1.172 1.172 0 010-2.344h7.013a1.172 1.172 0 110 2.343zM85.876 21.247A7.564 7.564 0 0179.471 9.66c.215-.34.59-.548.992-.548H91.29c.402 0 .776.207.991.548a7.564 7.564 0 01-6.404 11.587zm-4.721-9.79a5.22 5.22 0 109.443 0h-9.443z"/>
  <path fill="#1E2E36" d="M85.767 11.456a1.172 1.172 0 01-1.172-1.172v-7.54a1.172 1.172 0 012.344 0v7.54c0 .647-.525 1.172-1.172 1.172z"/>
  <path fill="#1E2E36" d="M85.767 11.456a1.172 1.172 0 01-.829-2L88.993 5.4a1.172 1.172 0 011.657 1.657l-4.055 4.055c-.22.22-.517.344-.828.343z"/>
  <path fill="#1E2E36" d="M85.767 11.456c-.31 0-.61-.123-.829-.343l-4.055-4.055a1.172 1.172 0 111.64-1.675l.017.017 4.056 4.056a1.172 1.172 0 01-.83 2zM60.857 46.426h-5.715a5.877 5.877 0 01-5.87-5.87V37.8c0-.647.525-1.172 1.172-1.172h15.111c.648 0 1.172.525 1.172 1.172v2.755a5.877 5.877 0 01-5.87 5.87zm-9.241-7.453v1.583a3.53 3.53 0 003.526 3.527h5.715a3.53 3.53 0 003.527-3.527v-1.583H51.616z"/>
  <path fill="#1E2E36" d="M67.788 41.038h-2.233a1.172 1.172 0 010-2.343h2.233a1.172 1.172 0 110 2.343zM50.062 41.038H47.83a1.172 1.172 0 010-2.343h2.232a1.172 1.172 0 010 2.343z"/>
  <path fill="#1E2E36" d="M65.555 38.973H50.444a1.172 1.172 0 01-.966-1.836c1.64-2.385 4.905-3.867 8.522-3.867s6.882 1.482 8.521 3.867a1.172 1.172 0 01-.966 1.836zm-11.964-2.344h8.818a10.076 10.076 0 00-8.818 0z"/>
  <path fill="#1E2E36" d="M56.569 35.703c-.287 0-.565-.106-.779-.297a3.329 3.329 0 114.42 0 1.172 1.172 0 11-1.557-1.751.985.985 0 10-1.305 0 1.172 1.172 0 01-.78 2.047zM13.903 49.334h-4.95a1.172 1.172 0 01-1.172-1.172V35.575c0-.647.525-1.171 1.172-1.171h4.95c.647 0 1.172.524 1.172 1.171v12.587c0 .648-.525 1.172-1.172 1.172zm-3.778-2.343h2.606V36.747h-2.606v10.244z"/>
  <path fill="#1E2E36" d="M8.953 49.334h-4.95a1.172 1.172 0 01-1.171-1.172V35.575c0-.647.524-1.171 1.171-1.171h4.95c.647 0 1.172.524 1.172 1.171v12.587c0 .648-.525 1.172-1.172 1.172zm-3.778-2.343h2.606V36.747H5.175v10.244zM24.774 49.334h-2.21a4.056 4.056 0 01-4.05-4.05v-4.11c0-.647.524-1.172 1.171-1.172h7.968c.647 0 1.172.525 1.172 1.172v4.11a4.055 4.055 0 01-4.05 4.05zm-3.916-6.988v2.937a1.709 1.709 0 001.707 1.707h2.21a1.709 1.709 0 001.707-1.707v-2.937h-5.624z"/>
  <path fill="#1E2E36" d="M28.339 42.346H19a2.216 2.216 0 01-2.213-2.213v-1.216A2.216 2.216 0 0119 36.704h9.339a2.216 2.216 0 012.213 2.213v1.215a2.216 2.216 0 01-2.213 2.214zm-9.209-2.344h9.079v-.955H19.13v.955zM77.97 49.334h-6.034a1.172 1.172 0 01-1.172-1.172v-8.246c0-.647.525-1.172 1.172-1.172h6.034c.647 0 1.172.524 1.172 1.172v8.246c0 .648-.525 1.172-1.172 1.172zm-4.862-2.344h3.69v-5.902h-3.69v5.902z"/>
  <path fill="#1E2E36" d="M77.97 41.087h-6.034a1.172 1.172 0 01-1.172-1.171v-3.603c0-.647.525-1.172 1.172-1.172h6.034c.647 0 1.172.525 1.172 1.172v3.603c0 .647-.525 1.172-1.172 1.172zm-4.862-2.343h3.69v-1.259h-3.69v1.259zM92.437 45.37c-1.915 0-3.414-1.842-3.414-4.195s1.5-4.196 3.414-4.196c1.915 0 3.414 1.843 3.414 4.196 0 2.353-1.5 4.196-3.414 4.196zm0-6.047c-.505 0-1.07.792-1.07 1.852s.565 1.852 1.07 1.852c.505 0 1.07-.792 1.07-1.852s-.565-1.852-1.07-1.852z"/>
  <path fill="#1E2E36" d="M92.437 39.3c-.546 0-1.02-.377-1.142-.91l-1.791-7.814a3.01 3.01 0 115.867 0l-1.792 7.814c-.122.533-.596.91-1.142.91zm0-10.061a.666.666 0 00-.649.814l.649 2.83.649-2.83a.666.666 0 00-.65-.815zM84.008 39.3c-.546 0-1.02-.377-1.142-.91l-1.792-7.813a3.01 3.01 0 115.867 0L85.15 38.39c-.122.533-.596.91-1.142.91zm0-10.061a.666.666 0 00-.649.814l.649 2.831.649-2.83a.666.666 0 00-.65-.815z"/>
  <path fill="#1E2E36" d="M86.7 43.088h-5.385a1.172 1.172 0 01-1.16-1.006 4.714 4.714 0 011.083-3.765c.757-.873 1.767-1.374 2.77-1.374 1.003 0 2.013.5 2.77 1.374a4.714 4.714 0 011.083 3.765 1.172 1.172 0 01-1.16 1.006zm-4.165-2.344h2.945a2.274 2.274 0 00-.473-.892c-.298-.343-.69-.566-1-.566-.308 0-.7.222-.998.566a2.277 2.277 0 00-.474.892z"/>
</svg>
