<svg xmlns="http://www.w3.org/2000/svg" width="30" height="31" fill="none" viewBox="0 0 30 31">
  <g clip-path="url(#clip0_628_441)">
    <path fill="#1E2E36" fill-rule="evenodd" d="M11.25 26.438a.312.312 0 100 .624.312.312 0 000-.625zm-2.188.312a2.188 2.188 0 114.376 0 2.188 2.188 0 01-4.376 0zM25 26.438a.312.312 0 100 .624.312.312 0 000-.625zm-2.188.312a2.188 2.188 0 114.376 0 2.188 2.188 0 01-4.375 0zM.313 1.75c0-.518.42-.938.937-.938h5c.447 0 .832.316.92.754l1.1 5.496h20.48a.938.938 0 01.92 1.114l-2 10.494a3.437 3.437 0 01-3.428 2.767H12.108a3.438 3.438 0 01-3.427-2.766L6.59 8.23a.932.932 0 01-.018-.089L5.482 2.687H1.25a.938.938 0 01-.938-.937zm8.332 7.188l1.875 9.367a1.563 1.563 0 001.562 1.258H24.268a1.562 1.562 0 001.562-1.255v-.003l1.787-9.367H8.645z" clip-rule="evenodd"/>
  </g>
  <defs>
    <clipPath id="clip0_628_441">
      <path fill="#fff" d="M0 0h30v30H0z" transform="translate(0 .5)"/>
    </clipPath>
  </defs>
</svg>
