<svg xmlns="http://www.w3.org/2000/svg" width="100" height="84" fill="none" viewBox="0 0 100 84">
  <path fill="#1E2E36" d="M46.666 79.18H16.765a4.511 4.511 0 01-4.507-4.507V63.057a4.512 4.512 0 014.507-4.507h29.9a4.512 4.512 0 014.507 4.507v11.616a4.511 4.511 0 01-4.506 4.506zM16.765 60.893a2.165 2.165 0 00-2.163 2.163v11.615a2.165 2.165 0 002.163 2.163h29.9a2.165 2.165 0 002.163-2.162V63.056a2.165 2.165 0 00-2.163-2.163h-29.9z"/>
  <path fill="#1E2E36" d="M10.095 79.18H4.506A4.512 4.512 0 010 74.672V52.436a4.512 4.512 0 014.506-4.507h5.59a4.511 4.511 0 014.506 4.507v22.237a4.511 4.511 0 01-4.507 4.506zM4.506 50.272a2.165 2.165 0 00-2.162 2.163v22.237a2.165 2.165 0 002.162 2.162h5.59a2.165 2.165 0 002.162-2.162V52.436a2.165 2.165 0 00-2.163-2.163H4.506z"/>
  <path fill="#1E2E36" d="M86.57 70.037H13.43a1.172 1.172 0 010-2.344h73.14a1.172 1.172 0 110 2.344zM46.666 60.894H16.765a4.511 4.511 0 01-4.507-4.506V38.54a4.511 4.511 0 014.507-4.507h29.9a4.511 4.511 0 014.507 4.507v17.847a4.511 4.511 0 01-4.506 4.506zM16.765 36.378a2.165 2.165 0 00-2.163 2.162v17.847a2.165 2.165 0 002.163 2.163h29.9a2.165 2.165 0 002.163-2.163V38.541a2.165 2.165 0 00-2.163-2.163h-29.9z"/>
  <path fill="#1E2E36" d="M83.235 60.894h-29.9a4.511 4.511 0 01-4.507-4.506V38.54a4.511 4.511 0 014.506-4.507h29.901a4.511 4.511 0 014.507 4.507v17.847a4.511 4.511 0 01-4.507 4.506zm-29.9-24.516a2.165 2.165 0 00-2.163 2.162v17.847a2.165 2.165 0 002.163 2.163h29.9a2.165 2.165 0 002.163-2.163V38.541a2.165 2.165 0 00-2.163-2.163h-29.9z"/>
  <path fill="#1E2E36" d="M83.235 79.18h-29.9a4.511 4.511 0 01-4.507-4.507V63.057a4.512 4.512 0 014.506-4.507h29.901a4.512 4.512 0 014.507 4.507v11.616a4.511 4.511 0 01-4.507 4.506zm-29.9-18.286a2.165 2.165 0 00-2.163 2.163v11.615a2.165 2.165 0 002.163 2.163h29.9a2.165 2.165 0 002.163-2.162V63.056a2.165 2.165 0 00-2.163-2.163h-29.9z"/>
  <path fill="#1E2E36" d="M95.493 79.18h-5.588a4.512 4.512 0 01-4.507-4.507V52.436a4.511 4.511 0 014.507-4.507h5.588A4.512 4.512 0 01100 52.436v22.237a4.512 4.512 0 01-4.507 4.506zm-5.588-28.907a2.165 2.165 0 00-2.163 2.163v22.237a2.165 2.165 0 002.162 2.162h5.59a2.165 2.165 0 002.162-2.162V52.436a2.165 2.165 0 00-2.163-2.163h-5.588zM52.74 60.894h-5.48a1.172 1.172 0 010-2.344h5.48a1.172 1.172 0 010 2.344zM71.45 30.639h-42.9a1.172 1.172 0 01-1.172-1.172V1.625c0-.647.524-1.172 1.171-1.172H71.45c.648 0 1.172.525 1.172 1.172v27.842c0 .647-.524 1.172-1.172 1.172zm-41.729-2.344H70.28V2.796H29.722v25.499z"/>
  <path fill="#1E2E36" d="M67.547 26.735H32.453a1.172 1.172 0 01-1.172-1.172V5.528c0-.647.525-1.172 1.172-1.172h35.094c.647 0 1.172.525 1.172 1.172v20.035c0 .647-.525 1.172-1.172 1.172zm-33.922-2.344h32.75V6.701h-32.75v17.69z"/>
  <path fill="#1E2E36" d="M36.654 22.44a1.172 1.172 0 01-.83-2l6.027-6.027a1.172 1.172 0 011.657 0l3.657 3.657a1.172 1.172 0 01-1.657 1.657l-2.828-2.828-5.198 5.198c-.22.22-.518.343-.828.343z"/>
  <path fill="#1E2E36" d="M63.346 22.38c-.31 0-.61-.123-.828-.343l-4.279-4.28c-1.605-1.604-3.21-3.209-4.813-4.814l-.752-.751-.71-.71-6.522 6.522a1.172 1.172 0 01-1.657-1.658l7.35-7.35a1.172 1.172 0 011.659.001l1.537 1.537.753.752c1.603 1.605 3.207 3.21 4.813 4.813 1.425 1.427 2.85 2.854 4.278 4.28a1.172 1.172 0 01-.829 2z"/>
  <path fill="#1E2E36" d="M59.069 18.1c-.31 0-.609-.123-.829-.343-1.607-1.604-3.212-3.21-4.814-4.814a1.172 1.172 0 01-.256-1.273 4.862 4.862 0 116.343 6.343c-.141.058-.292.087-.444.087zm-3.351-6.179c1.18 1.182 2.362 2.363 3.544 3.545a2.52 2.52 0 10-3.544-3.545zM92.699 83.547a3.078 3.078 0 01-2.992-2.337l-.728-2.92a1.172 1.172 0 011.138-1.455h5.164a1.172 1.172 0 011.138 1.456l-.728 2.919a3.078 3.078 0 01-2.992 2.337zm-1.082-4.368l.365 1.464a.74.74 0 001.434 0l.365-1.464h-2.165zM7.301 83.547a3.078 3.078 0 01-2.992-2.337l-.728-2.92a1.172 1.172 0 011.138-1.455h5.164a1.172 1.172 0 011.138 1.456l-.728 2.919A3.078 3.078 0 017.3 83.547zm-1.082-4.368l.365 1.464a.74.74 0 001.434 0l.365-1.464H6.22z"/>
</svg>
